<svg width="40" height="40" viewBox="0 0 40 40" fill="none" xmlns="http://www.w3.org/2000/svg">
<g id="Confetti" clip-path="url(#clip0_257106_2201)">
<path id="Vector" d="M6.32658 32.1125L14.5313 9.55313C14.601 9.3604 14.7183 9.1884 14.8723 9.0531C15.0263 8.91781 15.2119 8.82358 15.412 8.77916C15.6121 8.73475 15.8202 8.74159 16.017 8.79904C16.2137 8.85649 16.3928 8.9627 16.5375 9.10781L30.8938 23.4641C31.0385 23.609 31.1443 23.788 31.2014 23.9847C31.2586 24.1813 31.2652 24.3892 31.2206 24.5891C31.1761 24.789 31.0818 24.9744 30.9465 25.1281C30.8113 25.2819 30.6394 25.399 30.4469 25.4688L7.88752 33.6734C7.66966 33.753 7.4336 33.7687 7.20712 33.7186C6.98065 33.6686 6.7732 33.5548 6.60919 33.3908C6.44518 33.2268 6.33145 33.0194 6.28138 32.7929C6.23132 32.5664 6.247 32.3304 6.32658 32.1125Z" stroke="#121214" style="stroke:#121214;stroke:color(display-p3 0.0706 0.0706 0.0784);stroke-opacity:1;" stroke-width="2" stroke-linecap="round" stroke-linejoin="round"/>
<path id="Vector_2" d="M21.875 2.5V6.25" stroke="#121214" style="stroke:#121214;stroke:color(display-p3 0.0706 0.0706 0.0784);stroke-opacity:1;" stroke-width="2" stroke-linecap="round" stroke-linejoin="round"/>
<path id="Vector_3" d="M34.375 18.125L36.875 20.625" stroke="#121214" style="stroke:#121214;stroke:color(display-p3 0.0706 0.0706 0.0784);stroke-opacity:1;" stroke-width="2" stroke-linecap="round" stroke-linejoin="round"/>
<path id="Vector_4" d="M33.75 12.5L37.5 11.25" stroke="#121214" style="stroke:#121214;stroke:color(display-p3 0.0706 0.0706 0.0784);stroke-opacity:1;" stroke-width="2" stroke-linecap="round" stroke-linejoin="round"/>
<path id="Vector_5" d="M12.2015 15.9517L24.0484 27.7985" stroke="#121214" style="stroke:#121214;stroke:color(display-p3 0.0706 0.0706 0.0784);stroke-opacity:1;" stroke-width="2" stroke-linecap="round" stroke-linejoin="round"/>
<path id="Vector_6" d="M15.7984 30.7985L9.20154 24.2017" stroke="#121214" style="stroke:#121214;stroke:color(display-p3 0.0706 0.0706 0.0784);stroke-opacity:1;" stroke-width="2" stroke-linecap="round" stroke-linejoin="round"/>
<path id="Vector_7" d="M26.3156 10.625C26.5016 9.55781 27.2219 7.5 30 7.5C33.75 7.5 33.75 3.75 33.75 3.75" stroke="#121214" style="stroke:#121214;stroke:color(display-p3 0.0706 0.0706 0.0784);stroke-opacity:1;" stroke-width="2" stroke-linecap="round" stroke-linejoin="round"/>
</g>
<defs>
<clipPath id="clip0_257106_2201">
<rect width="40" height="40" fill="white" style="fill:white;fill:white;fill-opacity:1;"/>
</clipPath>
</defs>
</svg>
